<svg xmlns="http://www.w3.org/2000/svg" xmlns:xlink="http://www.w3.org/1999/xlink" width="500" zoomAndPan="magnify" viewBox="0 0 375 374.999991" height="500" preserveAspectRatio="xMidYMid meet" version="1.0"><defs><g/><clipPath id="d3302d1cb5"><path d="M 0 0 L 374.699219 0 L 374.699219 374.699219 L 0 374.699219 Z M 0 0 " clip-rule="nonzero"/></clipPath></defs><rect x="-37.5" width="450" fill="#ffffff" y="-37.499999" height="449.999989" fill-opacity="1"/><rect x="-37.5" width="450" fill="#000000" y="-37.499999" height="449.999989" fill-opacity="1"/><g clip-path="url(#d3302d1cb5)"><path fill="#ffffff" d="M 187.351562 374.699219 C 137.332031 374.699219 90.230469 355.230469 54.886719 319.8125 C 19.46875 284.46875 0 237.371094 0 187.351562 C 0 137.332031 19.46875 90.230469 54.886719 54.886719 C 90.230469 19.46875 137.332031 0 187.351562 0 C 237.371094 0 284.46875 19.46875 319.8125 54.886719 C 355.230469 90.304688 374.699219 137.332031 374.699219 187.351562 C 374.699219 237.371094 355.230469 284.46875 319.8125 319.8125 C 284.46875 355.230469 237.371094 374.699219 187.351562 374.699219 Z M 187.351562 11.230469 C 140.324219 11.230469 96.070312 29.578125 62.824219 62.824219 C 29.578125 96.070312 11.230469 140.324219 11.230469 187.351562 C 11.230469 234.375 29.578125 278.628906 62.824219 311.875 C 96.070312 345.121094 140.324219 363.46875 187.351562 363.46875 C 234.375 363.46875 278.628906 345.121094 311.875 311.875 C 345.121094 278.628906 363.46875 234.375 363.46875 187.351562 C 363.46875 140.324219 345.121094 96.070312 311.875 62.824219 C 278.628906 29.578125 234.375 11.230469 187.351562 11.230469 Z M 187.351562 11.230469 " fill-opacity="1" fill-rule="nonzero"/></g><g fill="#ffffff" fill-opacity="1"><g transform="translate(55.412976, 277.409483)"><g><path d="M 27.808594 0 C 25.738281 -23.667969 27.511719 -49.109375 31.0625 -78.394531 L 46.148438 -200.28125 L 116.855469 0 L 134.011719 0 L 198.503906 -187.261719 L 223.945312 0 L 247.613281 0 L 218.917969 -207.675781 L 201.167969 -207.675781 L 135.195312 -15.976562 L 67.449219 -207.675781 L 43.785156 -207.675781 L 27.511719 -78.988281 C 23.667969 -49.699219 18.339844 -26.328125 9.464844 0 Z M 27.808594 0 "/></g></g></g><g fill="#ffffff" fill-opacity="1"><g transform="translate(48.412544, 292.89262)"><g><path d="M 1.90625 2.546875 C 1.539062 2.117188 1.378906 1.6875 1.421875 1.25 C 1.460938 0.8125 1.695312 0.410156 2.125 0.046875 L 11.140625 -7.609375 C 11.578125 -7.984375 12.019531 -8.144531 12.46875 -8.09375 C 12.914062 -8.050781 13.332031 -7.804688 13.71875 -7.359375 C 14.03125 -6.992188 14.207031 -6.632812 14.25 -6.28125 C 14.300781 -5.925781 14.238281 -5.507812 14.0625 -5.03125 L 11.015625 3.0625 L 19.5 1.359375 C 20 1.265625 20.414062 1.265625 20.75 1.359375 C 21.082031 1.460938 21.410156 1.703125 21.734375 2.078125 C 22.097656 2.503906 22.265625 2.9375 22.234375 3.375 C 22.203125 3.8125 21.96875 4.21875 21.53125 4.59375 L 12.515625 12.25 C 12.085938 12.613281 11.65625 12.78125 11.21875 12.75 C 10.78125 12.726562 10.375 12.5 10 12.0625 C 9.632812 11.625 9.472656 11.1875 9.515625 10.75 C 9.554688 10.3125 9.789062 9.910156 10.21875 9.546875 L 15.21875 5.296875 L 9.328125 6.390625 C 8.960938 6.429688 8.644531 6.421875 8.375 6.359375 C 8.113281 6.296875 7.867188 6.128906 7.640625 5.859375 C 7.398438 5.578125 7.265625 5.296875 7.234375 5.015625 C 7.210938 4.742188 7.265625 4.441406 7.390625 4.109375 L 9.359375 -1.46875 L 4.421875 2.734375 C 3.992188 3.097656 3.5625 3.265625 3.125 3.234375 C 2.695312 3.210938 2.289062 2.984375 1.90625 2.546875 Z M 1.90625 2.546875 "/></g></g></g><g fill="#ffffff" fill-opacity="1"><g transform="translate(61.12556, 307.708678)"><g><path d="M 1.359375 1.5625 C 0.878906 1.101562 0.679688 0.601562 0.765625 0.0625 C 0.859375 -0.476562 1.25 -0.890625 1.9375 -1.171875 L 13.671875 -5.78125 C 14.242188 -6 14.75 -6.070312 15.1875 -6 C 15.625 -5.9375 16.023438 -5.734375 16.390625 -5.390625 C 16.734375 -5.066406 16.953125 -4.679688 17.046875 -4.234375 C 17.148438 -3.796875 17.101562 -3.285156 16.90625 -2.703125 L 12.859375 9.25 C 12.609375 9.957031 12.222656 10.375 11.703125 10.5 C 11.179688 10.625 10.6875 10.460938 10.21875 10.015625 C 9.8125 9.617188 9.582031 9.222656 9.53125 8.828125 C 9.488281 8.429688 9.578125 7.945312 9.796875 7.375 L 10.421875 5.71875 L 5.5625 1.09375 L 3.953125 1.796875 C 3.367188 2.023438 2.894531 2.140625 2.53125 2.140625 C 2.164062 2.140625 1.773438 1.945312 1.359375 1.5625 Z M 13.40625 -2.3125 L 8.546875 -0.203125 L 11.546875 2.65625 L 13.4375 -2.28125 Z M 13.40625 -2.3125 "/></g></g></g><g fill="#ffffff" fill-opacity="1"><g transform="translate(73.36684, 319.307931)"><g><path d="M 2.5 2.203125 C 2.007812 1.816406 1.734375 1.382812 1.671875 0.90625 C 1.609375 0.425781 1.773438 -0.0625 2.171875 -0.5625 L 9.15625 -9.390625 C 9.550781 -9.890625 9.988281 -10.164062 10.46875 -10.21875 C 10.957031 -10.28125 11.453125 -10.113281 11.953125 -9.71875 L 16.0625 -6.46875 C 17.394531 -5.414062 18.164062 -4.269531 18.375 -3.03125 C 18.59375 -1.800781 18.242188 -0.609375 17.328125 0.546875 C 16.628906 1.429688 15.820312 2 14.90625 2.25 C 14 2.5 13.035156 2.40625 12.015625 1.96875 C 12.503906 2.632812 12.664062 3.460938 12.5 4.453125 L 12.15625 6.609375 C 12.070312 7.085938 11.898438 7.472656 11.640625 7.765625 C 11.390625 8.066406 11.078125 8.21875 10.703125 8.21875 C 10.328125 8.226562 9.921875 8.066406 9.484375 7.734375 C 9.054688 7.390625 8.769531 7.019531 8.625 6.625 C 8.488281 6.238281 8.46875 5.769531 8.5625 5.21875 L 9.25 1.21875 C 9.300781 0.863281 9.265625 0.554688 9.140625 0.296875 C 9.015625 0.046875 8.816406 -0.1875 8.546875 -0.40625 L 7.625 -1.125 L 5.25 1.875 C 4.851562 2.375 4.421875 2.648438 3.953125 2.703125 C 3.484375 2.765625 3 2.597656 2.5 2.203125 Z M 9.328125 -3.28125 L 11.375 -1.671875 C 12.582031 -0.710938 13.566406 -0.710938 14.328125 -1.671875 C 15.078125 -2.617188 14.847656 -3.570312 13.640625 -4.53125 L 11.59375 -6.140625 Z M 9.328125 -3.28125 "/></g></g></g><g fill="#ffffff" fill-opacity="1"><g transform="translate(85.642632, 328.98491)"><g><path d="M 2.671875 1.984375 C 2.148438 1.640625 1.835938 1.234375 1.734375 0.765625 C 1.640625 0.296875 1.769531 -0.207031 2.125 -0.75 L 8.390625 -10.328125 C 8.734375 -10.859375 9.140625 -11.171875 9.609375 -11.265625 C 10.085938 -11.367188 10.585938 -11.25 11.109375 -10.90625 C 11.628906 -10.570312 11.9375 -10.164062 12.03125 -9.6875 C 12.132812 -9.21875 12.015625 -8.71875 11.671875 -8.1875 L 9.125 -4.296875 L 9.15625 -4.265625 L 16.609375 -6.21875 C 16.992188 -6.3125 17.359375 -6.34375 17.703125 -6.3125 C 18.054688 -6.28125 18.394531 -6.160156 18.71875 -5.953125 C 19.195312 -5.628906 19.46875 -5.265625 19.53125 -4.859375 C 19.59375 -4.453125 19.492188 -4.085938 19.234375 -3.765625 C 18.984375 -3.441406 18.648438 -3.222656 18.234375 -3.109375 L 11.953125 -1.609375 L 12.96875 5.40625 C 13.039062 5.945312 12.960938 6.394531 12.734375 6.75 C 12.503906 7.101562 12.179688 7.320312 11.765625 7.40625 C 11.359375 7.488281 10.925781 7.378906 10.46875 7.078125 C 10.0625 6.804688 9.785156 6.507812 9.640625 6.1875 C 9.503906 5.863281 9.398438 5.457031 9.328125 4.96875 L 8.15625 -2.75 L 8.125 -2.78125 L 5.40625 1.390625 C 5.050781 1.929688 4.640625 2.25 4.171875 2.34375 C 3.703125 2.445312 3.203125 2.328125 2.671875 1.984375 Z M 2.671875 1.984375 "/></g></g></g><g fill="#ffffff" fill-opacity="1"><g transform="translate(98.833693, 337.533245)"><g><path d="M 3 1.625 C 1.800781 0.96875 1.523438 0.046875 2.171875 -1.140625 L 7.375 -10.796875 C 8.019531 -11.992188 8.941406 -12.265625 10.140625 -11.609375 L 16.5 -8.1875 C 17.40625 -7.695312 17.617188 -7.007812 17.140625 -6.125 C 16.660156 -5.226562 15.96875 -5.023438 15.0625 -5.515625 L 10.203125 -8.140625 L 8.84375 -5.625 L 13.296875 -3.21875 C 14.191406 -2.726562 14.398438 -2.035156 13.921875 -1.140625 C 13.441406 -0.253906 12.753906 -0.0546875 11.859375 -0.546875 L 7.40625 -2.953125 L 5.9375 -0.25 L 10.796875 2.375 C 11.703125 2.863281 11.914062 3.554688 11.4375 4.453125 C 10.957031 5.335938 10.265625 5.535156 9.359375 5.046875 Z M 3 1.625 "/></g></g></g><g fill="#ffffff" fill-opacity="1"><g transform="translate(110.808043, 343.986018)"><g><path d="M 6.203125 2.9375 C 5.628906 2.6875 5.253906 2.335938 5.078125 1.890625 C 4.898438 1.453125 4.941406 0.9375 5.203125 0.34375 L 9.25 -8.84375 L 6.203125 -10.203125 C 5.203125 -10.640625 4.921875 -11.34375 5.359375 -12.3125 C 5.785156 -13.289062 6.5 -13.5625 7.5 -13.125 L 17.203125 -8.84375 C 18.191406 -8.40625 18.472656 -7.695312 18.046875 -6.71875 C 17.609375 -5.75 16.894531 -5.484375 15.90625 -5.921875 L 12.84375 -7.265625 L 8.796875 1.921875 C 8.535156 2.515625 8.179688 2.894531 7.734375 3.0625 C 7.296875 3.238281 6.785156 3.195312 6.203125 2.9375 Z M 6.203125 2.9375 "/></g></g></g><g fill="#ffffff" fill-opacity="1"><g transform="translate(123.768951, 349.569503)"><g><path d="M 3.0625 1.328125 C 2.46875 1.109375 2.066406 0.78125 1.859375 0.34375 C 1.660156 -0.09375 1.675781 -0.617188 1.90625 -1.234375 L 5.875 -11.921875 C 6.09375 -12.523438 6.421875 -12.925781 6.859375 -13.125 C 7.296875 -13.332031 7.8125 -13.328125 8.40625 -13.109375 C 8.988281 -12.890625 9.378906 -12.5625 9.578125 -12.125 C 9.773438 -11.6875 9.765625 -11.164062 9.546875 -10.5625 L 5.578125 0.125 C 5.347656 0.738281 5.019531 1.144531 4.59375 1.34375 C 4.164062 1.550781 3.65625 1.546875 3.0625 1.328125 Z M 3.0625 1.328125 "/></g></g></g><g fill="#ffffff" fill-opacity="1"><g transform="translate(130.369577, 352.171727)"><g><path d="M 3.03125 1.09375 C 1.84375 0.75 1.421875 -0.015625 1.765625 -1.203125 L 5.046875 -12.34375 C 5.222656 -12.945312 5.507812 -13.363281 5.90625 -13.59375 C 6.300781 -13.820312 6.742188 -13.867188 7.234375 -13.734375 C 7.671875 -13.597656 7.984375 -13.414062 8.171875 -13.1875 C 8.367188 -12.957031 8.566406 -12.601562 8.765625 -12.125 L 12.5 -3 L 14.46875 -9.6875 C 14.8125 -10.851562 15.5625 -11.269531 16.71875 -10.9375 C 17.300781 -10.757812 17.691406 -10.476562 17.890625 -10.09375 C 18.085938 -9.707031 18.101562 -9.234375 17.9375 -8.671875 L 14.609375 2.65625 C 14.453125 3.175781 14.195312 3.550781 13.84375 3.78125 C 13.488281 4.007812 13.078125 4.054688 12.609375 3.921875 C 12.140625 3.785156 11.796875 3.597656 11.578125 3.359375 C 11.367188 3.117188 11.171875 2.753906 10.984375 2.265625 L 7.25 -6.828125 L 5.28125 -0.171875 C 4.9375 1.015625 4.1875 1.4375 3.03125 1.09375 Z M 3.03125 1.09375 "/></g></g></g><g fill="#ffffff" fill-opacity="1"><g transform="translate(146.470337, 356.882546)"><g><path d="M 8.8125 1.953125 C 7.125 1.628906 5.753906 1.035156 4.703125 0.171875 C 3.660156 -0.679688 2.941406 -1.734375 2.546875 -2.984375 C 2.148438 -4.234375 2.097656 -5.609375 2.390625 -7.109375 C 2.691406 -8.679688 3.273438 -9.976562 4.140625 -11 C 5.015625 -12.019531 6.117188 -12.726562 7.453125 -13.125 C 8.785156 -13.519531 10.3125 -13.550781 12.03125 -13.21875 C 12.726562 -13.082031 13.425781 -12.878906 14.125 -12.609375 C 14.820312 -12.335938 15.484375 -11.945312 16.109375 -11.4375 C 16.429688 -11.207031 16.628906 -10.925781 16.703125 -10.59375 C 16.785156 -10.269531 16.769531 -9.945312 16.65625 -9.625 C 16.539062 -9.300781 16.363281 -9.023438 16.125 -8.796875 C 15.882812 -8.578125 15.59375 -8.445312 15.25 -8.40625 C 14.914062 -8.375 14.566406 -8.492188 14.203125 -8.765625 C 13.410156 -9.328125 12.476562 -9.710938 11.40625 -9.921875 C 10 -10.191406 8.875 -10.019531 8.03125 -9.40625 C 7.195312 -8.789062 6.644531 -7.769531 6.375 -6.34375 C 6.09375 -4.925781 6.234375 -3.785156 6.796875 -2.921875 C 7.359375 -2.054688 8.316406 -1.488281 9.671875 -1.21875 C 10.316406 -1.09375 11.0625 -1.050781 11.90625 -1.09375 L 12.359375 -3.421875 L 10.875 -3.71875 C 9.894531 -3.90625 9.488281 -4.453125 9.65625 -5.359375 C 9.832031 -6.253906 10.410156 -6.609375 11.390625 -6.421875 L 14.5 -5.8125 C 15.5 -5.625 15.898438 -5.023438 15.703125 -4.015625 L 14.8125 0.609375 C 14.726562 1.023438 14.566406 1.363281 14.328125 1.625 C 14.097656 1.882812 13.789062 2.046875 13.40625 2.109375 C 12.6875 2.191406 11.929688 2.222656 11.140625 2.203125 C 10.359375 2.179688 9.582031 2.097656 8.8125 1.953125 Z M 8.8125 1.953125 "/></g></g></g><g fill="#ffffff" fill-opacity="1"><g transform="translate(162.54229, 359.820122)"><g/></g></g><g fill="#ffffff" fill-opacity="1"><g transform="translate(169.001693, 360.7931)"><g><path d="M 2.046875 0.3125 C 1.378906 0.269531 0.898438 0.015625 0.609375 -0.453125 C 0.328125 -0.929688 0.363281 -1.5 0.71875 -2.15625 L 6.703125 -13.25 C 6.984375 -13.78125 7.316406 -14.160156 7.703125 -14.390625 C 8.085938 -14.628906 8.53125 -14.734375 9.03125 -14.703125 C 9.507812 -14.671875 9.925781 -14.515625 10.28125 -14.234375 C 10.632812 -13.960938 10.925781 -13.546875 11.15625 -12.984375 L 15.765625 -1.265625 C 16.046875 -0.554688 16.023438 0.0078125 15.703125 0.4375 C 15.378906 0.875 14.894531 1.070312 14.25 1.03125 C 13.6875 1 13.257812 0.847656 12.96875 0.578125 C 12.6875 0.304688 12.441406 -0.117188 12.234375 -0.703125 L 11.65625 -2.359375 L 4.953125 -2.765625 L 4.171875 -1.171875 C 3.878906 -0.628906 3.59375 -0.238281 3.3125 0 C 3.03125 0.238281 2.609375 0.34375 2.046875 0.3125 Z M 8.734375 -10.4375 L 6.390625 -5.671875 L 10.53125 -5.421875 L 8.78125 -10.4375 Z M 8.734375 -10.4375 "/></g></g></g><g fill="#ffffff" fill-opacity="1"><g transform="translate(185.863375, 361.762193)"><g><path d="M 3.203125 0.0625 C 1.972656 0.113281 1.335938 -0.472656 1.296875 -1.703125 L 0.859375 -13.3125 C 0.835938 -13.9375 0.976562 -14.421875 1.28125 -14.765625 C 1.582031 -15.109375 1.988281 -15.289062 2.5 -15.3125 C 2.957031 -15.332031 3.3125 -15.257812 3.5625 -15.09375 C 3.820312 -14.9375 4.125 -14.664062 4.46875 -14.28125 L 10.890625 -6.828125 L 10.625 -13.78125 C 10.582031 -15 11.164062 -15.632812 12.375 -15.6875 C 12.976562 -15.707031 13.4375 -15.5625 13.75 -15.25 C 14.0625 -14.945312 14.226562 -14.503906 14.25 -13.921875 L 14.6875 -2.125 C 14.707031 -1.582031 14.582031 -1.144531 14.3125 -0.8125 C 14.039062 -0.488281 13.660156 -0.316406 13.171875 -0.296875 C 12.691406 -0.285156 12.3125 -0.359375 12.03125 -0.515625 C 11.75 -0.671875 11.445312 -0.945312 11.125 -1.34375 L 4.703125 -8.796875 L 4.953125 -1.84375 C 4.992188 -0.613281 4.410156 0.0195312 3.203125 0.0625 Z M 3.203125 0.0625 "/></g></g></g><g fill="#ffffff" fill-opacity="1"><g transform="translate(202.64486, 361.123433)"><g><path d="M 3.375 -0.453125 C 2.019531 -0.273438 1.253906 -0.859375 1.078125 -2.203125 L -0.40625 -13.0625 C -0.582031 -14.40625 0.00390625 -15.164062 1.359375 -15.34375 L 5.515625 -15.90625 C 8.078125 -16.257812 10.15625 -15.882812 11.75 -14.78125 C 13.351562 -13.6875 14.316406 -11.953125 14.640625 -9.578125 C 14.960938 -7.210938 14.5 -5.28125 13.25 -3.78125 C 12 -2.289062 10.09375 -1.367188 7.53125 -1.015625 Z M 4.8125 -3.84375 L 6.84375 -4.125 C 8.3125 -4.320312 9.351562 -4.828125 9.96875 -5.640625 C 10.582031 -6.453125 10.789062 -7.582031 10.59375 -9.03125 C 10.394531 -10.476562 9.890625 -11.503906 9.078125 -12.109375 C 8.265625 -12.710938 7.128906 -12.914062 5.671875 -12.71875 L 3.640625 -12.4375 Z M 4.8125 -3.84375 "/></g></g></g><g fill="#ffffff" fill-opacity="1"><g transform="translate(219.645728, 358.616087)"><g/></g></g><g fill="#ffffff" fill-opacity="1"><g transform="translate(226.04153, 357.42916)"><g><path d="M 3.28125 -0.890625 C 1.96875 -0.535156 1.132812 -1.007812 0.78125 -2.3125 L -2.09375 -12.90625 C -2.445312 -14.207031 -1.96875 -15.035156 -0.65625 -15.390625 L 4.375 -16.765625 C 5.9375 -17.191406 7.234375 -17.179688 8.265625 -16.734375 C 9.304688 -16.285156 9.984375 -15.488281 10.296875 -14.34375 C 10.503906 -13.59375 10.492188 -12.882812 10.265625 -12.21875 C 10.046875 -11.5625 9.632812 -11.003906 9.03125 -10.546875 C 9.90625 -10.515625 10.640625 -10.265625 11.234375 -9.796875 C 11.835938 -9.335938 12.253906 -8.675781 12.484375 -7.8125 C 12.835938 -6.539062 12.660156 -5.414062 11.953125 -4.4375 C 11.242188 -3.457031 10.097656 -2.75 8.515625 -2.3125 Z M 2.5625 -10.09375 L 5.25 -10.828125 C 5.9375 -11.015625 6.40625 -11.269531 6.65625 -11.59375 C 6.914062 -11.925781 6.976562 -12.34375 6.84375 -12.84375 C 6.695312 -13.351562 6.429688 -13.6875 6.046875 -13.84375 C 5.660156 -14 5.125 -13.984375 4.4375 -13.796875 L 1.75 -13.0625 Z M 4.1875 -4.125 L 7.25 -4.953125 C 7.945312 -5.140625 8.421875 -5.410156 8.671875 -5.765625 C 8.921875 -6.117188 8.972656 -6.566406 8.828125 -7.109375 C 8.679688 -7.640625 8.410156 -7.988281 8.015625 -8.15625 C 7.617188 -8.332031 7.070312 -8.328125 6.375 -8.140625 L 3.3125 -7.3125 Z M 4.1875 -4.125 "/></g></g></g><g fill="#ffffff" fill-opacity="1"><g transform="translate(241.032217, 353.329414)"><g><path d="M 3.1875 -0.984375 C 2.59375 -0.765625 2.078125 -0.753906 1.640625 -0.953125 C 1.210938 -1.148438 0.882812 -1.550781 0.65625 -2.15625 L -3.25 -12.703125 C -3.46875 -13.296875 -3.476562 -13.8125 -3.28125 -14.25 C -3.082031 -14.695312 -2.679688 -15.03125 -2.078125 -15.25 L 2.84375 -17.078125 C 4.4375 -17.671875 5.8125 -17.738281 6.96875 -17.28125 C 8.125 -16.820312 8.960938 -15.898438 9.484375 -14.515625 C 9.867188 -13.460938 9.929688 -12.476562 9.671875 -11.5625 C 9.410156 -10.65625 8.832031 -9.878906 7.9375 -9.234375 C 8.757812 -9.304688 9.550781 -9.019531 10.3125 -8.375 L 11.984375 -6.9375 C 12.335938 -6.613281 12.570312 -6.269531 12.6875 -5.90625 C 12.800781 -5.539062 12.765625 -5.191406 12.578125 -4.859375 C 12.398438 -4.523438 12.050781 -4.265625 11.53125 -4.078125 C 11.019531 -3.890625 10.5625 -3.832031 10.15625 -3.90625 C 9.757812 -3.988281 9.34375 -4.21875 8.90625 -4.59375 L 5.859375 -7.265625 C 5.578125 -7.492188 5.289062 -7.617188 5 -7.640625 C 4.71875 -7.671875 4.414062 -7.628906 4.09375 -7.515625 L 3 -7.09375 L 4.328125 -3.515625 C 4.554688 -2.910156 4.570312 -2.390625 4.375 -1.953125 C 4.175781 -1.523438 3.78125 -1.203125 3.1875 -0.984375 Z M 2.046875 -9.6875 L 4.5 -10.59375 C 5.9375 -11.132812 6.441406 -11.972656 6.015625 -13.109375 C 5.597656 -14.242188 4.671875 -14.539062 3.234375 -14 L 0.78125 -13.09375 Z M 2.046875 -9.6875 "/></g></g></g><g fill="#ffffff" fill-opacity="1"><g transform="translate(255.710364, 347.887768)"><g><path d="M 1.9375 -0.71875 C 1.332031 -0.425781 0.789062 -0.414062 0.3125 -0.6875 C -0.15625 -0.96875 -0.398438 -1.476562 -0.421875 -2.21875 L -0.578125 -14.84375 C -0.597656 -15.445312 -0.492188 -15.941406 -0.265625 -16.328125 C -0.046875 -16.722656 0.289062 -17.03125 0.75 -17.25 C 1.175781 -17.457031 1.609375 -17.523438 2.046875 -17.453125 C 2.492188 -17.378906 2.957031 -17.148438 3.4375 -16.765625 L 13.171875 -8.75 C 13.765625 -8.28125 14.023438 -7.773438 13.953125 -7.234375 C 13.878906 -6.703125 13.550781 -6.296875 12.96875 -6.015625 C 12.457031 -5.773438 12.007812 -5.703125 11.625 -5.796875 C 11.238281 -5.890625 10.816406 -6.140625 10.359375 -6.546875 L 9.03125 -7.71875 L 3 -4.828125 L 3.078125 -3.046875 C 3.085938 -2.429688 3.023438 -1.953125 2.890625 -1.609375 C 2.765625 -1.265625 2.445312 -0.96875 1.9375 -0.71875 Z M 2.5625 -13.359375 L 2.828125 -8.078125 L 6.5625 -9.859375 L 2.609375 -13.390625 Z M 2.5625 -13.359375 "/></g></g></g><g fill="#ffffff" fill-opacity="1"><g transform="translate(270.919375, 340.544046)"><g><path d="M 2.828125 -1.5 C 1.773438 -0.863281 0.929688 -1.070312 0.296875 -2.125 L -5.71875 -12.0625 C -6.039062 -12.59375 -6.148438 -13.082031 -6.046875 -13.53125 C -5.953125 -13.976562 -5.6875 -14.335938 -5.25 -14.609375 C -4.863281 -14.835938 -4.519531 -14.941406 -4.21875 -14.921875 C -3.914062 -14.910156 -3.523438 -14.816406 -3.046875 -14.640625 L 6.203125 -11.265625 L 2.59375 -17.21875 C 1.96875 -18.257812 2.171875 -19.09375 3.203125 -19.71875 C 3.722656 -20.03125 4.191406 -20.128906 4.609375 -20.015625 C 5.023438 -19.898438 5.382812 -19.59375 5.6875 -19.09375 L 11.8125 -8.984375 C 12.09375 -8.523438 12.191406 -8.085938 12.109375 -7.671875 C 12.035156 -7.253906 11.789062 -6.921875 11.375 -6.671875 C 10.96875 -6.421875 10.601562 -6.296875 10.28125 -6.296875 C 9.957031 -6.296875 9.554688 -6.382812 9.078125 -6.5625 L -0.15625 -9.953125 L 3.4375 -4.015625 C 4.070312 -2.960938 3.867188 -2.125 2.828125 -1.5 Z M 2.828125 -1.5 "/></g></g></g><g fill="#ffffff" fill-opacity="1"><g transform="translate(285.276843, 331.833051)"><g><path d="M 2.734375 -2.046875 C 1.640625 -1.222656 0.6875 -1.351562 -0.125 -2.4375 L -6.6875 -11.21875 C -7.5 -12.300781 -7.359375 -13.253906 -6.265625 -14.078125 L -2.921875 -16.578125 C -0.835938 -18.128906 1.164062 -18.8125 3.09375 -18.625 C 5.019531 -18.445312 6.703125 -17.398438 8.140625 -15.484375 C 9.566406 -13.578125 10.097656 -11.664062 9.734375 -9.75 C 9.378906 -7.832031 8.160156 -6.097656 6.078125 -4.546875 Z M 2.328125 -5.703125 L 3.96875 -6.9375 C 5.15625 -7.832031 5.820312 -8.78125 5.96875 -9.78125 C 6.125 -10.78125 5.765625 -11.863281 4.890625 -13.03125 C 4.003906 -14.207031 3.054688 -14.863281 2.046875 -15 C 1.046875 -15.132812 -0.0390625 -14.757812 -1.21875 -13.875 L -2.859375 -12.640625 Z M 2.328125 -5.703125 "/></g></g></g><g fill="#ffffff" fill-opacity="1"><g transform="translate(298.931192, 321.382243)"><g><path d="M 2.640625 -2.03125 C 2.171875 -1.625 1.691406 -1.4375 1.203125 -1.46875 C 0.722656 -1.5 0.269531 -1.765625 -0.15625 -2.265625 L -7.609375 -10.890625 C -8.023438 -11.378906 -8.210938 -11.863281 -8.171875 -12.34375 C -8.140625 -12.832031 -7.890625 -13.28125 -7.421875 -13.6875 C -6.941406 -14.09375 -6.460938 -14.273438 -5.984375 -14.234375 C -5.503906 -14.203125 -5.054688 -13.941406 -4.640625 -13.453125 L 2.8125 -4.828125 C 3.238281 -4.328125 3.4375 -3.835938 3.40625 -3.359375 C 3.375 -2.890625 3.117188 -2.445312 2.640625 -2.03125 Z M 2.640625 -2.03125 "/></g></g></g><g fill="#ffffff" fill-opacity="1"><g transform="translate(304.395814, 316.855617)"><g><path d="M 2.40625 -2.109375 C 1.53125 -1.242188 0.660156 -1.25 -0.203125 -2.125 L -8.375 -10.390625 C -8.8125 -10.835938 -9.035156 -11.289062 -9.046875 -11.75 C -9.054688 -12.207031 -8.882812 -12.617188 -8.53125 -12.984375 C -8.195312 -13.304688 -7.878906 -13.492188 -7.578125 -13.546875 C -7.285156 -13.597656 -6.882812 -13.59375 -6.375 -13.53125 L 3.40625 -12.390625 L -1.5 -17.34375 C -2.351562 -18.21875 -2.351562 -19.082031 -1.5 -19.9375 C -1.0625 -20.363281 -0.625 -20.566406 -0.1875 -20.546875 C 0.25 -20.523438 0.671875 -20.304688 1.078125 -19.890625 L 9.390625 -11.5 C 9.773438 -11.113281 9.976562 -10.707031 10 -10.28125 C 10.019531 -9.851562 9.851562 -9.46875 9.5 -9.125 C 9.15625 -8.789062 8.828125 -8.585938 8.515625 -8.515625 C 8.210938 -8.441406 7.804688 -8.441406 7.296875 -8.515625 L -2.484375 -9.65625 L 2.390625 -4.703125 C 3.253906 -3.828125 3.257812 -2.960938 2.40625 -2.109375 Z M 2.40625 -2.109375 "/></g></g></g><g fill="#ffffff" fill-opacity="1"><g transform="translate(316.301804, 305.038893)"><g><path d="M 5.96875 -6.78125 C 4.875 -5.457031 3.691406 -4.539062 2.421875 -4.03125 C 1.160156 -3.519531 -0.109375 -3.394531 -1.390625 -3.65625 C -2.679688 -3.914062 -3.910156 -4.535156 -5.078125 -5.515625 C -6.304688 -6.535156 -7.15625 -7.675781 -7.625 -8.9375 C -8.101562 -10.195312 -8.191406 -11.503906 -7.890625 -12.859375 C -7.585938 -14.222656 -6.878906 -15.578125 -5.765625 -16.921875 C -5.304688 -17.460938 -4.785156 -17.972656 -4.203125 -18.453125 C -3.628906 -18.929688 -2.972656 -19.320312 -2.234375 -19.625 C -1.867188 -19.800781 -1.523438 -19.84375 -1.203125 -19.75 C -0.878906 -19.65625 -0.601562 -19.484375 -0.375 -19.234375 C -0.144531 -18.984375 0.00390625 -18.695312 0.078125 -18.375 C 0.148438 -18.050781 0.125 -17.734375 0 -17.421875 C -0.125 -17.109375 -0.390625 -16.851562 -0.796875 -16.65625 C -1.679688 -16.238281 -2.472656 -15.613281 -3.171875 -14.78125 C -4.085938 -13.675781 -4.476562 -12.609375 -4.34375 -11.578125 C -4.207031 -10.546875 -3.582031 -9.566406 -2.46875 -8.640625 C -1.363281 -7.710938 -0.300781 -7.285156 0.71875 -7.359375 C 1.75 -7.429688 2.707031 -8 3.59375 -9.0625 C 4.007812 -9.570312 4.40625 -10.195312 4.78125 -10.9375 L 2.953125 -12.46875 L 2 -11.328125 C 1.351562 -10.554688 0.675781 -10.460938 -0.03125 -11.046875 C -0.726562 -11.628906 -0.753906 -12.304688 -0.109375 -13.078125 L 1.90625 -15.5 C 2.5625 -16.28125 3.285156 -16.34375 4.078125 -15.6875 L 7.6875 -12.671875 C 8.007812 -12.398438 8.226562 -12.097656 8.34375 -11.765625 C 8.457031 -11.441406 8.445312 -11.09375 8.3125 -10.71875 C 8.039062 -10.050781 7.707031 -9.375 7.3125 -8.6875 C 6.914062 -8.007812 6.46875 -7.375 5.96875 -6.78125 Z M 5.96875 -6.78125 "/></g></g></g></svg>